# xmcd CD database file
#
# Track frame offsets:
#	182
#	17320
#	33922
#	50080
#	66680
#	86022
#
# Disc length: 1453 seconds
#
# Revision: 2
# Processed by: cddbd v1.5.1PL2 Copyright (c) Steve Scherf et al.
# Submitted via: CDex 1.51
#
DISCID=4a05ab06
DTITLE=Various Artist - A Jazz Sampler
DYEAR=2003
DGENRE=Jazz
TTITLE0=Boney James - Something Inside
TTITLE1=Rick Braun - Use Me
TTITLE2=Randy Crawford - Permanent
TTITLE3=Kirk Whalum - There You'll Be
TTITLE4=Larry Carlton - Deep Into It
TTITLE5=Euge Groove - Sneak A Peek
EXTD=YEAR: 2003
EXTT0=
EXTT1=
EXTT2=
EXTT3=
EXTT4=
EXTT5=
PLAYORDER=
